<?xml version="1.0" ?><svg height="60px" version="1.1" viewBox="0 0 52 60" width="52px" xmlns="http://www.w3.org/2000/svg" xmlns:xlink="http://www.w3.org/1999/xlink"><title/><desc/><defs/><g fill="none" fill-rule="evenodd" id="People" stroke="none" stroke-width="1"><g fill="#000000" id="Icon-3" transform="translate(-4.000000, 0.000000)"><path d="M37,42 C37.553,42 38,42.448 38,43 C38,43.552 37.553,44 37,44 L23,44 C22.448,44 22,43.552 22,43 C22,42.448 22.448,42 23,42 L37,42 Z M43,38 L23,38 C22.448,38 22,37.552 22,37 C22,36.448 22.448,36 23,36 L43,36 C43.553,36 44,36.448 44,37 C44,37.552 43.553,38 43,38 L43,38 Z M45,32 L23,32 C22.448,32 22,31.552 22,31 C22,30.448 22.448,30 23,30 L45,30 C45.553,30 46,30.448 46,31 C46,31.552 45.553,32 45,32 L45,32 Z M22,25 C22,24.448 22.448,24 23,24 L41,24 C41.553,24 42,24.448 42,25 C42,25.552 41.553,26 41,26 L23,26 C22.448,26 22,25.552 22,25 L22,25 Z M22,19 C22,18.448 22.448,18 23,18 L43,18 C43.553,18 44,18.448 44,19 C44,19.552 43.553,20 43,20 L23,20 C22.448,20 22,19.552 22,19 L22,19 Z M18,43 C18,43.552 17.552,44 17,44 L15,44 C14.448,44 14,43.552 14,43 C14,42.448 14.448,42 15,42 L17,42 C17.552,42 18,42.448 18,43 L18,43 Z M18,37 C18,37.552 17.552,38 17,38 L15,38 C14.448,38 14,37.552 14,37 C14,36.448 14.448,36 15,36 L17,36 C17.552,36 18,36.448 18,37 L18,37 Z M18,31 C18,31.552 17.552,32 17,32 L15,32 C14.448,32 14,31.552 14,31 C14,30.448 14.448,30 15,30 L17,30 C17.552,30 18,30.448 18,31 L18,31 Z M18,25 C18,25.552 17.552,26 17,26 L15,26 C14.448,26 14,25.552 14,25 C14,24.448 14.448,24 15,24 L17,24 C17.552,24 18,24.448 18,25 L18,25 Z M18,19 C18,19.552 17.552,20 17,20 L15,20 C14.448,20 14,19.552 14,19 C14,18.448 14.448,18 15,18 L17,18 C17.552,18 18,18.448 18,19 L18,19 Z M18,5 C18,4.448 18.448,4 19,4 L21,4 C21.552,4 22,4.448 22,5 C22,5.552 21.552,6 21,6 L19,6 C18.448,6 18,5.552 18,5 L18,5 Z M28,5 C28,4.448 28.448,4 29,4 L31,4 C31.553,4 32,4.448 32,5 C32,5.552 31.553,6 31,6 L29,6 C28.448,6 28,5.552 28,5 L28,5 Z M38,5 C38,4.448 38.447,4 39,4 L41,4 C41.553,4 42,4.448 42,5 C42,5.552 41.553,6 41,6 L39,6 C38.447,6 38,5.552 38,5 L38,5 Z M15,8 C15.551,8 16,8.449 16,9 C16,9.551 15.551,10 15,10 C14.449,10 14,9.551 14,9 C14,8.449 14.449,8 15,8 L15,8 Z M12,9 C12,10.654 13.346,12 15,12 C16.654,12 18,10.654 18,9 C18,7.698 17.162,6.599 16,6.184 L16,1 C16,0.448 15.552,0 15,0 C14.448,0 14,0.448 14,1 L14,6.184 C12.838,6.599 12,7.698 12,9 L12,9 Z M45,8 C45.552,8 46,8.449 46,9 C46,9.551 45.552,10 45,10 C44.448,10 44,9.551 44,9 C44,8.449 44.448,8 45,8 L45,8 Z M42,9 C42,10.654 43.346,12 45,12 C46.654,12 48,10.654 48,9 C48,7.698 47.161,6.599 46,6.184 L46,1 C46,0.448 45.553,0 45,0 C44.447,0 44,0.448 44,1 L44,6.184 C42.839,6.599 42,7.698 42,9 L42,9 Z M35,8 C35.552,8 36,8.449 36,9 C36,9.551 35.552,10 35,10 C34.448,10 34,9.551 34,9 C34,8.449 34.448,8 35,8 L35,8 Z M32,9 C32,10.654 33.346,12 35,12 C36.654,12 38,10.654 38,9 C38,7.698 37.161,6.599 36,6.184 L36,1 C36,0.448 35.553,0 35,0 C34.447,0 34,0.448 34,1 L34,6.184 C32.839,6.599 32,7.698 32,9 L32,9 Z M25,8 C25.551,8 26,8.449 26,9 C26,9.551 25.551,10 25,10 C24.449,10 24,9.551 24,9 C24,8.449 24.449,8 25,8 L25,8 Z M22,9 C22,10.654 23.346,12 25,12 C26.654,12 28,10.654 28,9 C28,7.698 27.162,6.599 26,6.184 L26,1 C26,0.448 25.552,0 25,0 C24.448,0 24,0.448 24,1 L24,6.184 C22.838,6.599 22,7.698 22,9 L22,9 Z M51,58 L9,58 C7.878,58 6.714,57.085 6.233,56 L53.767,56 C53.286,57.085 52.122,58 51,58 L51,58 Z M6,54 L54,54 L54,52 L6,52 L6,54 Z M51,4 L49,4 C48.447,4 48,4.448 48,5 C48,5.552 48.447,6 49,6 L51,6 C52.458,6 54,7.542 54,9 L54,50 L6,50 L6,9 C6,7.542 7.542,6 9,6 L11,6 C11.552,6 12,5.552 12,5 C12,4.448 11.552,4 11,4 L9,4 C6.43,4 4,6.43 4,9 L4,55 C4,57.57 6.43,60 9,60 L51,60 C53.57,60 56,57.57 56,55 L56,9 C56,6.43 53.57,4 51,4 L51,4 Z" id="notes"/></g></g></svg>